<svg xmlns="http://www.w3.org/2000/svg" xmlns:xlink="http://www.w3.org/1999/xlink" width="500" zoomAndPan="magnify" viewBox="0 0 375 374.999991" height="500" preserveAspectRatio="xMidYMid meet" version="1.0"><defs><g/><clipPath id="7adeda2014"><path d="M 117.535156 57.382812 L 257.785156 57.382812 L 257.785156 217.132812 L 117.535156 217.132812 Z M 117.535156 57.382812 " clip-rule="nonzero"/></clipPath></defs><rect x="-37.5" width="450" fill="#ffffff" y="-37.499999" height="449.999989" fill-opacity="1"/><rect x="-37.5" width="450" fill="#07660d" y="-37.499999" height="449.999989" fill-opacity="1"/><g fill="#ffffff" fill-opacity="1"><g transform="translate(57.335197, 280.436833)"><g><path d="M 2.953125 -38.046875 L 11.6875 -38.046875 C 15.132812 -38.046875 17.6875 -37.269531 19.34375 -35.71875 C 21.007812 -34.164062 21.84375 -31.765625 21.84375 -28.515625 C 21.84375 -23.660156 20.023438 -20.984375 16.390625 -20.484375 C 18.648438 -19.953125 20.296875 -18.894531 21.328125 -17.3125 C 22.359375 -15.726562 22.875 -13.570312 22.875 -10.84375 C 22.875 -7.4375 22.066406 -4.773438 20.453125 -2.859375 C 18.835938 -0.953125 16.390625 0 13.109375 0 L 2.953125 0 Z M 11.40625 -22.171875 C 13.601562 -22.171875 15.125 -22.644531 15.96875 -23.59375 C 16.8125 -24.550781 17.234375 -26.191406 17.234375 -28.515625 C 17.234375 -30.203125 16.972656 -31.441406 16.453125 -32.234375 C 15.941406 -33.035156 15.171875 -33.546875 14.140625 -33.765625 C 13.109375 -33.984375 11.570312 -34.09375 9.53125 -34.09375 L 8.265625 -34.09375 L 8.265625 -22.171875 Z M 11.84375 -3.796875 C 13.40625 -3.796875 14.613281 -4.039062 15.46875 -4.53125 C 16.332031 -5.019531 16.9375 -5.765625 17.28125 -6.765625 C 17.625 -7.765625 17.796875 -9.125 17.796875 -10.84375 C 17.796875 -13.289062 17.296875 -15.113281 16.296875 -16.3125 C 15.296875 -17.519531 13.664062 -18.125 11.40625 -18.125 L 8.265625 -18.125 L 8.265625 -3.796875 Z M 11.84375 -3.796875 "/></g></g></g><g fill="#ffffff" fill-opacity="1"><g transform="translate(88.523224, 280.436833)"><g><path d="M 8.96875 -38.046875 L 14.09375 -38.046875 L 22.21875 0 L 17.1875 0 L 15.453125 -9.578125 L 7.703125 -9.578125 L 5.875 0 L 0.890625 0 Z M 14.75 -13.390625 L 11.546875 -30.53125 L 8.40625 -13.390625 Z M 14.75 -13.390625 "/></g></g></g><g fill="#ffffff" fill-opacity="1"><g transform="translate(118.208252, 280.436833)"><g><path d="M 2.953125 -38.046875 L 8.265625 -38.046875 L 8.265625 -3.796875 L 17.984375 -3.796875 L 17.984375 0 L 2.953125 0 Z M 2.953125 -38.046875 "/></g></g></g><g fill="#ffffff" fill-opacity="1"><g transform="translate(143.431252, 280.436833)"><g><path d="M 8.96875 -38.046875 L 14.09375 -38.046875 L 22.21875 0 L 17.1875 0 L 15.453125 -9.578125 L 7.703125 -9.578125 L 5.875 0 L 0.890625 0 Z M 14.75 -13.390625 L 11.546875 -30.53125 L 8.40625 -13.390625 Z M 14.75 -13.390625 "/></g></g></g><g fill="#ffffff" fill-opacity="1"><g transform="translate(173.11628, 280.436833)"><g><path d="M 2.953125 -38.046875 L 6.578125 -38.046875 L 17.375 -12.78125 L 17.375 -38.046875 L 21.796875 -38.046875 L 21.796875 0 L 18.40625 0 L 7.46875 -25.96875 L 7.46875 0 L 2.953125 0 Z M 2.953125 -38.046875 "/></g></g></g><g fill="#ffffff" fill-opacity="1"><g transform="translate(204.492178, 280.436833)"><g><path d="M 12.5 0.421875 C 8.738281 0.421875 6.085938 -0.695312 4.546875 -2.9375 C 3.015625 -5.175781 2.25 -8.269531 2.25 -12.21875 L 2.25 -25.640625 C 2.25 -29.804688 3 -32.96875 4.5 -35.125 C 6.007812 -37.289062 8.675781 -38.375 12.5 -38.375 C 15.90625 -38.375 18.351562 -37.445312 19.84375 -35.59375 C 21.332031 -33.75 22.078125 -31.03125 22.078125 -27.4375 L 22.078125 -24.421875 L 17.046875 -24.421875 L 17.046875 -27.09375 C 17.046875 -28.851562 16.96875 -30.203125 16.8125 -31.140625 C 16.65625 -32.078125 16.253906 -32.828125 15.609375 -33.390625 C 14.972656 -33.953125 13.953125 -34.234375 12.546875 -34.234375 C 11.097656 -34.234375 10.019531 -33.925781 9.3125 -33.3125 C 8.613281 -32.707031 8.15625 -31.863281 7.9375 -30.78125 C 7.71875 -29.707031 7.609375 -28.257812 7.609375 -26.4375 L 7.609375 -11.359375 C 7.609375 -9.421875 7.765625 -7.90625 8.078125 -6.8125 C 8.390625 -5.71875 8.894531 -4.929688 9.59375 -4.453125 C 10.300781 -3.984375 11.285156 -3.75 12.546875 -3.75 C 13.890625 -3.75 14.890625 -4.046875 15.546875 -4.640625 C 16.203125 -5.242188 16.613281 -6.0625 16.78125 -7.09375 C 16.957031 -8.125 17.046875 -9.53125 17.046875 -11.3125 L 17.046875 -14.140625 L 22.078125 -14.140625 L 22.078125 -11.3125 C 22.078125 -7.53125 21.363281 -4.628906 19.9375 -2.609375 C 18.507812 -0.585938 16.03125 0.421875 12.5 0.421875 Z M 12.5 0.421875 "/></g></g></g><g fill="#ffffff" fill-opacity="1"><g transform="translate(235.257488, 280.436833)"><g><path d="M 2.953125 -38.046875 L 17.703125 -38.046875 L 17.703125 -34.09375 L 8.265625 -34.09375 L 8.265625 -21.515625 L 15.921875 -21.515625 L 15.921875 -17.75 L 8.265625 -17.75 L 8.265625 -3.796875 L 17.796875 -3.796875 L 17.796875 0 L 2.953125 0 Z M 2.953125 -38.046875 "/></g></g></g><g fill="#ffffff" fill-opacity="1"><g transform="translate(260.950182, 280.436833)"><g><path d="M 3.5625 -38.046875 L 8.78125 -38.046875 L 15.5 -7.1875 L 22.265625 -38.046875 L 27.4375 -38.046875 L 28.140625 0 L 23.859375 0 L 23.4375 -27.625 L 17 0 L 14 0 L 7.609375 -27.625 L 7.1875 0 L 2.859375 0 Z M 3.5625 -38.046875 "/></g></g></g><g fill="#ffffff" fill-opacity="1"><g transform="translate(298.525962, 280.436833)"><g><path d="M 2.953125 -38.046875 L 17.703125 -38.046875 L 17.703125 -34.09375 L 8.265625 -34.09375 L 8.265625 -21.515625 L 15.921875 -21.515625 L 15.921875 -17.75 L 8.265625 -17.75 L 8.265625 -3.796875 L 17.796875 -3.796875 L 17.796875 0 L 2.953125 0 Z M 2.953125 -38.046875 "/></g></g></g><g clip-path="url(#7adeda2014)"><path fill="#ffffff" d="M 195.9375 212.152344 C 198.660156 212.265625 193.113281 214.339844 193.679688 212.871094 C 194.476562 212.765625 195.1875 212.398438 195.9375 212.152344 Z M 235.398438 163.089844 C 235.933594 163.210938 236.960938 163.664062 236.417969 164.335938 C 235.839844 165.460938 234.34375 163.449219 235.398438 163.089844 Z M 237.925781 161.597656 C 241.515625 161.800781 245.230469 161.949219 248.648438 163.15625 C 249.496094 163.910156 247.589844 163.730469 247.230469 163.523438 C 243.972656 162.4375 240.539062 163.078125 237.207031 162.730469 C 236.824219 162.210938 237.578125 161.859375 237.925781 161.597656 Z M 138.308594 161.597656 C 138.9375 161.519531 138.777344 162.597656 139.46875 162.648438 C 142.617188 163 146.679688 162.097656 149.375 164.015625 C 146.207031 164.089844 143.023438 163.375 139.839844 163.367188 C 138.914062 163.085938 138.996094 164.621094 138.457031 164.761719 C 137.125 163.878906 137.59375 162.652344 138.308594 161.597656 Z M 138.050781 159.082031 C 139.0625 158.765625 139.859375 160.011719 138.929688 160.660156 C 138.011719 161.664062 136.96875 159.425781 138.050781 159.082031 Z M 237.71875 157.203125 C 243.210938 156.851562 248.75 157.972656 253.941406 159.695312 C 254.078125 159.0625 254.160156 158.421875 254.265625 157.78125 C 255.035156 157.449219 254.585938 159.078125 255.589844 158.761719 C 256.625 159.234375 255.015625 160.148438 255.6875 160.792969 C 255.851562 161.78125 257.347656 161.230469 257.433594 162.316406 L 257.433594 163.125 C 255.894531 165.4375 254.714844 168.398438 251.933594 169.453125 C 243.570312 171.902344 234.667969 171.960938 226.066406 170.917969 C 222.445312 170.21875 217.863281 169.5625 216.542969 165.46875 C 216.359375 164.078125 214.109375 163.519531 214.996094 161.960938 C 215.660156 161.246094 216.539062 159.246094 217.761719 160.203125 C 223.019531 158.074219 228.789062 157.019531 234.464844 157.398438 C 235.1875 157.71875 235.777344 158.363281 236.664062 157.925781 C 237.125 158.820312 235.492188 158.996094 236.078125 159.835938 C 236.847656 160.757812 236.347656 161.832031 235.886719 162.757812 C 235.265625 162.855469 235.851562 161.929688 235.316406 161.78125 C 234.285156 161.242188 235.359375 160.210938 235.496094 159.472656 C 235.109375 158.1875 233.0625 158.367188 232.292969 158.550781 C 232.765625 159.378906 231.742188 159.578125 232.023438 158.648438 C 228.558594 158.5 225.140625 159.152344 221.726562 159.71875 C 222.601562 160.71875 224.566406 159.117188 224.769531 160.195312 C 223.519531 160.355469 222.210938 160.261719 221.074219 160.984375 C 223.230469 161.378906 225.28125 160.195312 227.449219 160.375 C 227.679688 161.085938 226.339844 160.855469 225.980469 161.011719 C 224.328125 161.324219 222.132812 161.25 220.972656 162.359375 C 222.871094 161.6875 224.859375 161.8125 226.835938 161.589844 C 226.484375 162.71875 224.011719 161.730469 223.535156 162.832031 C 227.058594 162.5625 230.503906 161.394531 234.054688 161.960938 C 234.515625 162.039062 234.421875 162.882812 233.882812 162.769531 C 229.625 163.019531 225.234375 162.632812 221.164062 164.207031 C 220.480469 164.613281 219.816406 164.035156 219.253906 163.679688 C 219.777344 162.699219 218.566406 162.628906 218.429688 161.695312 C 217.285156 161.308594 217 162.308594 216.757812 162.988281 C 217.625 164.074219 219.03125 164.335938 220.308594 164.632812 C 224.878906 166.179688 229.824219 166.082031 234.597656 166.097656 C 235.25 165.222656 236.191406 165.183594 236.957031 165.953125 C 241.828125 166.136719 246.71875 165.554688 251.46875 164.4375 C 252.742188 164.082031 254.292969 164.148438 255.292969 163.1875 C 254.621094 162.390625 254.527344 161.226562 255.117188 160.332031 C 254.621094 159.570312 254.246094 161.136719 253.605469 160.890625 C 252.273438 160.292969 250.851562 159.824219 249.398438 159.742188 C 248.472656 158.945312 246.824219 158.882812 246.203125 160.117188 C 245.03125 160.386719 244.027344 159.992188 243.796875 158.773438 C 241.710938 158.109375 239.417969 158.4375 237.265625 158.234375 C 236.386719 158.101562 237.074219 157.070312 237.71875 157.203125 M 254.132812 164.96875 C 253.160156 165.183594 253.054688 166.476562 252.667969 167.234375 C 253.375 167.496094 255.011719 165.324219 254.132812 164.96875 Z M 120.175781 156.808594 C 120.910156 156.570312 122.386719 157.472656 121.53125 158.230469 C 120.820312 158.710938 119.144531 157.550781 120.175781 156.808594 Z M 235.585938 154.964844 C 236.707031 154.460938 237.199219 156.351562 235.980469 156.324219 C 234.820312 156.953125 234.40625 154.945312 235.585938 154.964844 Z M 218.628906 154.546875 C 221.53125 154.238281 218.613281 157.027344 219.40625 158.511719 C 218.375 160.824219 216.675781 157.511719 218.464844 157.183594 C 219.464844 156.199219 217.332031 155.148438 218.628906 154.546875 Z M 121.453125 153.746094 C 121.847656 154.09375 122.5625 154.363281 122.902344 154.789062 C 122.625 156.472656 119.3125 154.441406 121.453125 153.746094 Z M 253.003906 153.109375 C 255.019531 152.855469 253.488281 154.875 253.730469 155.832031 C 254.214844 155.972656 255.203125 156.152344 255.097656 156.839844 C 254.363281 158.429688 251.976562 157.046875 253.011719 155.605469 C 252.195312 154.84375 251.363281 153.449219 253.003906 153.109375 Z M 122.28125 152.261719 C 122.914062 152.222656 123.351562 153.292969 122.566406 153.546875 C 121.703125 153.832031 121.578125 152.53125 122.28125 152.261719 Z M 235.066406 151.589844 C 235.925781 151.398438 237.324219 152.128906 236.703125 153.140625 C 235.746094 154.3125 233.699219 152.433594 235.066406 151.589844 Z M 154.703125 150.910156 C 155.355469 150.824219 155.25 151.679688 155.796875 151.800781 C 156.921875 152.226562 155.550781 153.539062 156.507812 154.152344 C 157.90625 155.039062 156.289062 157.410156 158.023438 157.746094 C 158.90625 159.0625 155.878906 159.667969 156.335938 158.042969 C 157.066406 156.863281 154.75 156.292969 155.550781 155.117188 C 156.324219 153.84375 153.289062 153.304688 154.625 152.171875 C 155.707031 152.007812 154.019531 151.515625 154.703125 150.910156 Z M 235.078125 148.65625 C 236.210938 148.230469 237.410156 149.824219 236.097656 150.429688 C 235.8125 152.753906 233.75 149.207031 235.078125 148.65625 Z M 220.191406 148.660156 C 221.046875 148.671875 222.332031 149.71875 221.039062 150.3125 C 220.972656 151.035156 219.824219 151.664062 220.929688 152.15625 C 221.0625 153.398438 219.054688 153.492188 218.867188 152.296875 C 218.519531 151.125 220.082031 151.144531 220.394531 150.257812 C 219.871094 149.917969 219.394531 148.976562 220.191406 148.660156 Z M 221.136719 147.578125 C 221.683594 147.390625 222.007812 148.476562 221.316406 148.496094 C 220.71875 148.644531 220.660156 147.761719 221.136719 147.578125 Z M 123.675781 146.554688 C 124.515625 146.527344 124.996094 149.40625 123.324219 149.292969 C 123.640625 149.746094 123.476562 150.121094 123.027344 150.386719 C 123.117188 150.878906 124.160156 151.113281 123.710938 151.722656 C 122.890625 152.671875 120.820312 151.722656 121.785156 150.464844 C 122.457031 150.253906 123.402344 149.328125 122.617188 148.726562 C 122.03125 147.714844 123.167969 147.226562 123.675781 146.554688 Z M 221.257812 145.726562 C 221.964844 145.746094 223.191406 146.820312 222.144531 147.3125 C 221 148.0625 219.914062 146.089844 221.257812 145.726562 Z M 152.773438 145.589844 C 153.761719 145.433594 154.898438 146.695312 154.265625 147.65625 C 153.832031 148.789062 156.011719 149.039062 155.339844 150.191406 C 154.9375 151.394531 152.777344 150.40625 153.519531 149.324219 C 154.109375 148.152344 151.808594 147.796875 152.65625 146.746094 C 153.007812 146.386719 152.292969 145.914062 152.773438 145.589844 Z M 137.992188 146.34375 C 138.054688 144.9375 139.375 145.46875 139.015625 146.539062 C 140.527344 147.234375 138.855469 148.671875 138.917969 149.605469 C 140.570312 150.117188 139.386719 151.777344 138.71875 152.621094 C 140.730469 152.980469 138.433594 154.839844 139.15625 155.90625 C 140.015625 156.191406 139.351562 157.152344 139.199219 157.738281 C 145.027344 157.304688 151.042969 158.027344 156.496094 160.1875 C 157.296875 160.117188 158.160156 159.878906 158.902344 160.347656 C 158.796875 161.324219 158.863281 162.230469 159.847656 162.746094 C 159.136719 165.429688 157.664062 168.597656 154.835938 169.886719 C 152.347656 170.785156 149.71875 171.140625 147.128906 171.542969 C 139.558594 171.847656 131.789062 172.253906 124.40625 170.238281 C 121.113281 169.289062 119.042969 166.433594 117.550781 163.535156 L 117.550781 162.839844 C 118.09375 161.769531 118.867188 160.828125 119.257812 159.679688 C 120.023438 159.304688 120.304688 160.589844 121.117188 159.941406 C 126.03125 158.519531 131.101562 157.589844 136.226562 157.53125 C 136.820312 157.550781 137.480469 157.652344 137.949219 158.058594 C 138.128906 159.113281 135.886719 158.082031 136.210938 159.195312 C 136.40625 159.695312 134.863281 159.566406 135.574219 159.914062 C 136.199219 159.769531 136.519531 160.554688 135.882812 160.679688 C 134.976562 161.054688 137.0625 161.28125 136.125 161.671875 C 134.910156 162.136719 136.691406 162.488281 136.347656 163.292969 C 132.367188 164.144531 128.082031 163.339844 124.257812 164.785156 C 122.839844 164.019531 121.816406 162.519531 121.425781 160.96875 C 120.46875 161.121094 119.605469 162.03125 119.308594 162.894531 C 119.730469 163.292969 120.265625 163.628906 120.269531 164.339844 C 125.496094 166.472656 131.238281 166.003906 136.757812 166.382812 C 137.742188 166.835938 137.660156 165.28125 138.535156 165.453125 C 139.5 165.003906 139.179688 166.351562 139.816406 166.382812 C 145.808594 166.410156 151.929688 166.074219 157.65625 164.175781 C 158.3125 163.667969 157.957031 162.574219 157.863281 161.875 C 152.078125 159.207031 145.570312 158.675781 139.28125 158.738281 C 137.835938 158.988281 139.132812 157 137.625 156.601562 C 138.601562 155.210938 136.566406 153.3125 138.300781 152.429688 C 138.785156 151.457031 137.441406 151.105469 137.664062 150.214844 C 138.980469 149.121094 136.589844 147.496094 137.992188 146.34375 M 131.804688 158.980469 C 129.882812 159.652344 127.867188 159.910156 125.902344 160.449219 C 126.527344 160.710938 128.480469 160.097656 127.753906 161.113281 C 127.632812 161.34375 128.34375 161.457031 128 161.738281 C 127.292969 162.691406 130.164062 161.734375 129.21875 162.558594 C 128.6875 163.089844 126.789062 162.644531 127.046875 163.320312 C 129.484375 162.703125 132.160156 163.109375 134.515625 162.371094 C 133.925781 161.421875 134.035156 160.394531 133.886719 159.382812 C 134.910156 158.394531 132.269531 159.09375 131.804688 158.980469 M 126.148438 161.371094 C 125.484375 161.535156 124.75 161.570312 124.175781 161.964844 C 124.203125 162.441406 127.109375 161.21875 126.148438 161.371094 M 156.992188 165.65625 C 155.292969 165.808594 154.738281 167.078125 154.335938 168.574219 C 155.339844 168.972656 157.851562 166.304688 156.992188 165.65625 Z M 235.703125 144.234375 C 236.9375 144.050781 235.546875 145.398438 236.585938 145.566406 C 237.601562 146.179688 236.332031 146.929688 235.953125 147.261719 C 237.085938 148.316406 234.910156 148.78125 235.46875 147.34375 C 234.652344 147.003906 234.089844 145.539062 235.246094 145.292969 C 235.941406 145.265625 235.335938 144.542969 235.703125 144.234375 Z M 235.820312 142.511719 C 236.816406 142.347656 237.195312 143.746094 236.09375 143.910156 C 234.832031 144.570312 234.292969 142.257812 235.820312 142.511719 Z M 137.9375 140.367188 C 138.902344 139.898438 140.359375 140.789062 139.429688 141.757812 C 137.550781 142.679688 140.847656 144.070312 139.230469 145.085938 C 138.609375 145.128906 137.402344 144.824219 137.460938 143.988281 C 137.804688 143.339844 138.261719 142.726562 138.371094 141.984375 C 137.804688 141.703125 137.152344 140.792969 137.9375 140.367188 Z M 150.992188 139.972656 C 151.710938 140.15625 152.855469 141.027344 152.4375 141.964844 C 151.816406 143.117188 154.136719 143.6875 153.472656 144.839844 C 152.863281 145.027344 151.183594 145.316406 151.613281 144.210938 C 152.371094 142.414062 149.199219 141.660156 150.992188 139.972656 Z M 223.675781 139.738281 C 224.304688 140.207031 224.433594 141.554688 223.371094 141.835938 C 223.242188 143.066406 223.363281 144.679688 222.132812 145.550781 C 221.453125 145.460938 222.09375 144.5 221.507812 144.160156 C 220.464844 142.761719 223.472656 142.703125 222.582031 141.378906 C 221.734375 140.4375 222.90625 139.949219 223.675781 139.738281 Z M 247.761719 139.160156 C 249.371094 138.589844 249.832031 139.984375 249.410156 141.199219 C 251.011719 141.644531 250.167969 143.167969 250.273438 144.316406 C 252.378906 144.265625 250.414062 146.410156 251.417969 147.171875 C 252.371094 147.121094 252.644531 148.28125 251.871094 148.796875 C 251.277344 149.839844 253.53125 150.046875 252.773438 151.152344 C 252.386719 152.3125 250.332031 151.738281 251.085938 150.570312 C 251.804688 149.410156 249.867188 148.984375 250.101562 147.902344 C 252.214844 146.851562 248.277344 146.390625 249.09375 144.875 C 250.789062 143.964844 246.855469 142.867188 248.515625 141.722656 C 248.378906 141.03125 246.460938 139.921875 247.761719 139.160156 Z M 126.019531 138.070312 C 127.222656 137.972656 127.535156 140.578125 126.359375 141.007812 C 125.175781 141.734375 126.761719 143.417969 125.476562 144 C 124.65625 144.460938 125.773438 147.078125 124.289062 145.894531 C 122.480469 145.640625 123.78125 144.378906 124.449219 143.671875 C 123.898438 142.574219 124.839844 141.789062 125.273438 140.886719 C 124.414062 139.859375 125.605469 139.019531 126.019531 138.070312 Z M 224.332031 136.367188 C 225.1875 136.332031 225.226562 137.316406 224.722656 137.808594 C 225.695312 138.699219 224.058594 139.882812 223.3125 138.921875 C 222.429688 138.015625 223.59375 136.929688 224.332031 136.367188 Z M 138.46875 136.382812 C 139.304688 136.136719 139.277344 137.332031 139.699219 137.765625 C 140.0625 138.703125 138.710938 138.808594 138.832031 139.613281 C 138.25 140.167969 138.4375 138.75 137.859375 138.570312 C 137.132812 137.503906 139.046875 137.457031 138.46875 136.382812 Z M 127.015625 135.617188 C 127.945312 135.296875 126.984375 136.539062 127.667969 136.789062 C 128.484375 138.007812 125.699219 137.941406 125.871094 136.777344 C 126.058594 136.21875 126.789062 136.167969 127.015625 135.617188 Z M 224.242188 134.359375 C 225.101562 133.980469 226.253906 135.03125 225.554688 135.835938 C 224.808594 137.046875 223.101562 134.976562 224.242188 134.359375 Z M 235.074219 134.21875 C 235.667969 134.117188 237.03125 134.214844 236.671875 135.179688 C 236.199219 135.714844 235.691406 136.832031 236.589844 137.15625 C 237.519531 138.03125 235.226562 138.917969 236.554688 139.832031 C 237.832031 140.671875 235.691406 141.003906 236.152344 141.917969 C 235.3125 142.53125 235.832031 141.171875 235.226562 141.023438 C 234.292969 140.507812 234.988281 139.621094 235.382812 139.011719 C 234.703125 138.335938 234.398438 137.109375 235.636719 136.855469 C 235.160156 136.179688 233.949219 134.914062 235.074219 134.21875 Z M 138.445312 133.578125 C 139.089844 133.476562 139.492188 134.429688 139.792969 134.941406 C 140.148438 136.332031 137.292969 136.3125 137.621094 134.933594 C 137.910156 134.492188 138.339844 134.136719 138.445312 133.578125 Z M 235.699219 133.023438 C 236.15625 132.820312 236.613281 133.632812 236.066406 133.816406 C 235.539062 134.25 235.066406 133.226562 235.699219 133.023438 Z M 128.023438 132.207031 C 128.84375 132.070312 128.636719 133.023438 128.25 133.421875 C 128.300781 133.851562 129.09375 134.207031 128.65625 134.726562 C 127.890625 135.8125 126.027344 134.355469 126.867188 133.378906 C 127.347656 133.082031 127.695312 132.660156 128.023438 132.207031 Z M 138.175781 131.558594 C 139.417969 131.007812 140.214844 133.050781 138.796875 132.964844 C 137.875 133.609375 137.175781 131.816406 138.175781 131.558594 Z M 128.160156 130.363281 C 128.820312 130.097656 130.335938 130.859375 129.390625 131.523438 C 128.542969 132.34375 126.707031 130.902344 128.160156 130.363281 Z M 235.074219 127.949219 C 236.238281 127.390625 237.25 129.28125 235.921875 129.640625 C 235.324219 130.71875 237.65625 131.289062 236.695312 132.300781 C 236.121094 133.257812 234.011719 132.078125 235.28125 131.28125 C 235.902344 130.835938 234.761719 130.335938 235.300781 129.769531 C 234.925781 129.324219 234.074219 128.359375 235.074219 127.949219 Z M 138.308594 127.671875 C 139.164062 127.453125 139.03125 128.644531 139.558594 129.042969 C 140.15625 129.957031 138.394531 130.308594 138.816406 131.304688 C 138.292969 131.636719 138.019531 130.839844 138.347656 130.476562 C 137.035156 129.964844 137.988281 128.5625 138.308594 127.671875 Z M 129.777344 126.625 C 130.675781 126.460938 129.644531 127.460938 130.234375 127.808594 C 130.898438 128.960938 128.726562 129.460938 128.503906 128.171875 C 128 127.1875 129.4375 127.234375 129.777344 126.625 Z M 227.785156 125.148438 C 228.628906 125.261719 228.46875 126.089844 227.921875 126.4375 C 229.363281 127.132812 227.617188 128.304688 227.117188 129.105469 C 228.730469 129.945312 226.386719 130.996094 226.277344 131.835938 C 227.769531 132.398438 225.558594 134.3125 225.085938 132.851562 C 224.027344 131.757812 226.421875 131.359375 225.707031 130.222656 C 224.777344 129.015625 227.066406 128.8125 226.488281 127.585938 C 225.9375 126.5 227.023438 125.75 227.785156 125.148438 Z M 129.660156 124.609375 C 130.449219 124.3125 131.726562 125.371094 130.921875 126.066406 C 129.964844 126.691406 128.425781 125.320312 129.660156 124.609375 Z M 235.070312 122.199219 C 238.085938 121.621094 234.921875 124.707031 236.574219 125.664062 C 237.113281 127.335938 233.554688 126.253906 235.066406 125.019531 C 236.160156 124.042969 233.96875 122.921875 235.070312 122.199219 Z M 228.601562 122.183594 C 229.34375 122.171875 229.007812 122.75 228.570312 122.972656 C 229.003906 123.367188 229.957031 123.949219 229.296875 124.625 C 228.496094 125.632812 226.734375 124.300781 227.308594 123.226562 C 227.703125 122.777344 228.511719 122.910156 228.601562 122.183594 Z M 130.574219 121.804688 C 131.613281 121.644531 132.925781 123.003906 131.65625 123.71875 C 130.667969 125.421875 129.386719 122.347656 130.574219 121.804688 Z M 138.589844 120.09375 C 139.375 119.761719 140.003906 121.179688 139.179688 121.5 C 138.550781 121.71875 139.085938 122.507812 138.667969 122.953125 C 139.773438 123.066406 139.972656 124.945312 138.570312 124.582031 C 138.683594 125.5 139.707031 126.09375 139.578125 127.054688 C 138.921875 128.082031 137.046875 126.832031 137.632812 125.738281 C 138.820312 124.867188 136.964844 124.128906 137.644531 123.1875 C 139.042969 122.238281 136.207031 120.296875 138.589844 120.09375 Z M 131.230469 119.269531 C 131.898438 119.214844 132.882812 119.488281 132.910156 120.296875 C 132.664062 121.6875 129.730469 120.035156 131.230469 119.269531 Z M 235.683594 117.9375 C 236.175781 117.96875 235.988281 118.621094 235.804688 118.941406 C 236.203125 119.230469 236.875 119.496094 236.703125 120.113281 C 236.109375 120.90625 234.203125 120.679688 234.78125 119.347656 C 235.382812 119.046875 235.175781 118.238281 235.683594 117.9375 Z M 132.507812 116.75 C 133.273438 116.644531 133.890625 117.835938 132.988281 118.109375 C 132.167969 118.144531 132.988281 119.410156 132.007812 119.210938 C 132.695312 118.238281 130.566406 116.847656 132.507812 116.75 Z M 235.738281 116.351562 C 236.871094 115.773438 237.066406 117.691406 235.964844 117.585938 C 234.652344 118.179688 234.539062 116.351562 235.738281 116.351562 Z M 230.613281 115.796875 C 231.910156 115.902344 230.367188 117.257812 231.1875 117.921875 C 230.820312 118.566406 230.308594 119.3125 229.773438 119.90625 C 230.253906 120.339844 230.488281 121.058594 229.863281 121.5 C 228.746094 122.328125 227.371094 120.152344 228.832031 119.753906 C 230.195312 119.417969 228.570312 117.992188 229.058594 117.226562 C 229.648438 116.835938 230.003906 116.148438 230.613281 115.796875 Z M 143.089844 115.65625 C 143.6875 115.570312 143.542969 116.785156 144.363281 116.464844 C 145.6875 116.832031 143.574219 118.550781 144.828125 118.941406 C 145.460938 119.078125 145.878906 119.964844 145.351562 120.441406 C 144.734375 121.007812 145.917969 121.445312 146.152344 121.921875 C 146.878906 122.621094 145.617188 124.09375 146.8125 124.328125 C 147.515625 124.605469 146.46875 125.507812 147.046875 125.945312 C 147.667969 126.617188 148.578125 127.464844 147.796875 128.332031 C 147.378906 129.746094 149.625 129.617188 148.910156 130.886719 C 148.257812 131.386719 149.257812 131.835938 148.742188 132.441406 C 149.304688 132.625 150.402344 132.800781 149.914062 133.664062 C 148.878906 134.457031 150.683594 135.230469 150.785156 136.03125 C 149.070312 136.96875 152.554688 138.003906 151.390625 139.316406 C 150.660156 140.042969 149.136719 139.128906 149.917969 138.179688 C 151.003906 136.992188 148.164062 136.863281 148.8125 135.691406 C 149.503906 135.265625 148.660156 134.628906 149.195312 134.050781 C 147.992188 134.308594 147.414062 132.976562 148.527344 132.476562 C 147.929688 132.160156 148.007812 131.683594 148.40625 131.222656 C 147.960938 131.09375 147.347656 131.179688 147.03125 130.757812 C 146.34375 130.039062 147.875 129.386719 147.003906 128.671875 C 146.117188 128.429688 145.691406 127.539062 146.496094 126.953125 C 145.957031 125.785156 144.582031 124.960938 145.460938 123.59375 C 144.320312 123.082031 143.863281 121.652344 144.660156 120.679688 C 144.433594 120.175781 142.921875 120.386719 143.609375 119.363281 C 144.390625 118.164062 141.609375 117.644531 142.953125 116.726562 C 143.765625 116.449219 142.566406 116.078125 143.089844 115.65625 Z M 240.507812 115.398438 C 241.324219 115.84375 243.085938 116.664062 241.792969 117.75 C 243.828125 118.289062 241.507812 120.40625 243.332031 120.90625 C 244.539062 121.269531 243.433594 122.445312 243.40625 123.207031 C 243.847656 123.453125 244.765625 123.652344 244.367188 124.347656 C 243.777344 125.433594 245.546875 125.886719 245.65625 126.820312 C 245.1875 127.378906 245.402344 128.128906 245.316406 128.796875 C 246.429688 128.917969 246.167969 130.078125 246.140625 130.890625 C 246.40625 131.316406 247.363281 131.550781 246.992188 132.199219 C 246.152344 133.394531 248.601562 134.039062 247.730469 135.292969 C 248.042969 136.410156 250.046875 137.417969 248.398438 138.683594 C 246.578125 138.789062 246.453125 136.785156 246.570312 135.488281 C 245.242188 135.160156 246.476562 133.449219 245.359375 132.90625 C 244.574219 132.589844 244.972656 131.640625 245.222656 131.175781 C 243.601562 130.125 245.15625 128.046875 243.203125 127.285156 C 244.253906 125.601562 241.503906 124.835938 242.59375 123.398438 C 241.988281 122.671875 241.335938 121.710938 242.027344 120.824219 C 241.832031 120.3125 240.359375 119.734375 241.113281 118.960938 C 241.984375 117.921875 239.472656 117.691406 240.085938 116.585938 C 240.300781 116.210938 240.078125 115.628906 240.507812 115.398438 Z M 230.355469 113.910156 C 231.105469 113.816406 232.765625 114.617188 231.632812 115.367188 C 230.730469 116.316406 229.355469 114.601562 230.355469 113.910156 Z M 235.699219 113.507812 C 237.535156 113.5625 235.035156 115.027344 235.699219 113.507812 Z M 142.050781 112.855469 C 142.9375 112.636719 142.792969 114.113281 143.742188 114.097656 C 144.117188 115.464844 141.082031 115.386719 141.902344 114.082031 C 142.421875 113.738281 141.5625 113.15625 142.050781 112.855469 Z M 138.292969 112.710938 C 139.371094 112.996094 138.507812 114.210938 139.160156 114.902344 C 137.824219 115.152344 139.464844 116.242188 138.84375 117.046875 C 139.898438 117.238281 139.386719 119.039062 138.4375 118.40625 C 136.605469 118.226562 138.605469 116.441406 137.800781 115.5625 C 137.445312 115.1875 137.164062 114.265625 137.828125 114.117188 C 139.148438 114.222656 137.351562 113.082031 138.292969 112.710938 Z M 231.03125 111.386719 C 231.625 111.25 232.804688 111.640625 232.699219 112.40625 C 232.03125 113.007812 230.097656 112.40625 231.03125 111.386719 Z M 137.910156 110.972656 C 138.589844 110.910156 139.886719 111.054688 139.378906 112.058594 C 138.609375 113.046875 136.769531 111.886719 137.910156 110.972656 Z M 235.339844 110.199219 C 236.210938 109.652344 237.15625 111.105469 236.175781 111.507812 C 235.238281 112.183594 234.042969 110.453125 235.339844 110.199219 Z M 140.996094 109.792969 C 141.914062 109.5625 142.074219 110.773438 142.757812 111.144531 C 143.554688 112.328125 140.167969 113.054688 141.105469 111.421875 C 142.144531 110.878906 140.203125 110.492188 140.996094 109.792969 Z M 232.464844 108.605469 C 233.316406 108.523438 234.171875 109.800781 233.148438 110.214844 C 231.902344 110.875 231.167969 108.773438 232.464844 108.605469 Z M 137.742188 108.027344 C 138.394531 108.355469 139.699219 107.851562 139.316406 109.15625 C 138.609375 110.019531 136.570312 109.1875 137.742188 108.027344 Z M 235.300781 107.519531 C 235.878906 107.449219 237.144531 107.464844 236.769531 108.34375 C 236.300781 108.632812 233.882812 108.453125 235.300781 107.519531 Z M 140.050781 106.574219 C 140.863281 106.417969 141.035156 107.652344 141.675781 107.957031 C 142.476562 109.066406 140.273438 109.609375 139.878906 108.597656 C 139.4375 107.757812 140.597656 108.097656 140.644531 107.503906 C 140.265625 107.390625 139.503906 106.976562 140.050781 106.574219 Z M 237.941406 106.460938 C 239.292969 106.574219 237.480469 108.804688 239.03125 109.042969 C 239.726562 109.214844 239.28125 110.066406 238.824219 110.28125 C 239.382812 110.8125 240.960938 111.152344 240.097656 112.199219 C 239.277344 113.414062 241.921875 113.242188 241.316406 114.457031 C 240.824219 115.035156 238.8125 115.410156 239.179688 114.121094 C 239.953125 113.496094 238.761719 112.75 238.363281 112.347656 C 237.613281 111.679688 239.460938 109.910156 237.867188 110.101562 C 237.144531 109.863281 237.765625 109.101562 237.90625 108.679688 C 238.089844 107.695312 236.679688 107.863281 236.71875 106.957031 C 236.859375 106.464844 237.519531 106.542969 237.941406 106.460938 Z M 232.910156 105.917969 C 233.960938 105.625 235.324219 107.445312 233.535156 107.390625 C 232.484375 108.011719 231.71875 106.160156 232.910156 105.917969 Z M 135.910156 105.503906 C 136.527344 105.667969 136.921875 107.417969 136.257812 107.882812 C 135.34375 108.304688 136.558594 109.730469 135.457031 109.902344 C 134.570312 109.921875 135.296875 110.863281 135.132812 111.417969 C 135.878906 112.683594 133.054688 113.367188 134.332031 114.496094 C 134.648438 115.847656 131.875 115.589844 132.578125 114.136719 C 134.289062 113.300781 132.257812 110.863281 134.554688 110.070312 C 134.1875 109.285156 134.46875 108.507812 135.152344 107.863281 C 134.453125 107.011719 135.21875 106.085938 135.910156 105.503906 Z M 139.792969 104.609375 C 140.644531 104.347656 141.214844 105.910156 140.308594 106.210938 C 139.570312 106.335938 138.535156 105.621094 138.058594 106.5 C 137.296875 106.722656 137.011719 105.121094 137.839844 105.089844 C 138.53125 105.519531 139.117188 104.746094 139.792969 104.609375 Z M 187.25 103.929688 C 188.007812 103.441406 189.367188 104.476562 188.367188 105.09375 C 187.40625 105.214844 187.15625 106.929688 186.117188 106.382812 C 185.289062 105.464844 186.109375 104.019531 187.25 103.929688 Z M 138.578125 103.546875 C 137.152344 104.199219 139.023438 105.140625 138.578125 103.546875 Z M 186.945312 57.382812 L 189.855469 57.382812 C 192.039062 57.804688 194.25 58.25 196.335938 58.992188 C 197.980469 60.53125 195.941406 62.78125 195.625 64.480469 C 194.695312 66.328125 192.210938 64.191406 190.871094 65.285156 C 190.503906 69.84375 191.007812 74.433594 190.71875 78.992188 C 190.175781 81.472656 192.117188 83.667969 191.246094 86.1875 C 190.773438 87.835938 193.277344 87.300781 193.894531 88.457031 C 209.769531 88.117188 225.691406 88.296875 241.539062 88.082031 C 242.988281 88.890625 242.726562 91.5 240.9375 91.675781 C 239.277344 91.773438 236.820312 90.679688 236.214844 92.925781 C 236.90625 93.300781 237.988281 93.816406 237.660156 94.804688 C 236.609375 96.28125 238.050781 98.914062 235.8125 99.636719 C 236.101562 100.152344 237.660156 100.753906 236.914062 101.644531 C 235.867188 102.753906 239.027344 103.84375 237.078125 104.742188 C 236.011719 105.414062 238.667969 105.03125 237.699219 106.078125 C 236.863281 105.757812 235.953125 105.984375 235.050781 105.929688 C 235.003906 104.84375 234.046875 105.023438 233.296875 104.738281 C 232.691406 103.121094 235.371094 103.441406 235.078125 104.78125 C 236.058594 105.515625 236.101562 104.625 235.664062 103.914062 C 237.59375 103.335938 235.339844 103.453125 234.488281 103.304688 C 234.222656 102.308594 233.648438 100.824219 235.09375 100.367188 C 234.027344 99.054688 234.574219 97.078125 233.78125 95.558594 C 233.175781 94.476562 234.292969 93.726562 234.539062 92.835938 C 233.835938 92.46875 233.71875 91.300781 232.703125 91.605469 C 222.453125 92.222656 212.179688 92.292969 201.921875 92.472656 C 198.691406 92.980469 194.785156 91.421875 192.046875 93.808594 C 190.824219 95.40625 190.378906 97.484375 190.582031 99.472656 C 190.265625 109.53125 190.777344 119.613281 190.621094 129.667969 C 190.734375 154.847656 190.671875 180.046875 190.585938 205.210938 C 190.648438 205.644531 190.042969 206.640625 190.742188 206.828125 C 193.453125 206.921875 195.992188 208.039062 198.699219 208.152344 C 206.898438 208.472656 215.113281 208.332031 223.308594 208.261719 C 226.40625 209.019531 227.054688 215.082031 223.269531 215.351562 C 215.632812 216.273438 207.828125 215.21875 200.144531 215.585938 C 197.15625 215.609375 194.527344 217.007812 191.589844 217.296875 L 183.261719 217.296875 C 179.851562 216.800781 176.484375 215.636719 173 215.964844 C 165.976562 216.214844 158.953125 215.699219 151.921875 216.078125 C 149.953125 216.175781 147.148438 214.585938 148.003906 212.273438 C 148.183594 210.375 149.457031 208.59375 151.523438 208.652344 C 162.132812 207.636719 172.964844 209.542969 183.414062 207.027344 C 183.347656 193.847656 183.246094 180.15625 183.554688 166.804688 C 183.566406 143.320312 183.601562 119.824219 183.460938 96.355469 C 183.410156 94.199219 181.207031 92.75 179.203125 92.710938 C 166.59375 92.5 153.984375 92.316406 141.382812 91.863281 C 140.5 91.566406 140.203125 92.445312 139.796875 92.988281 C 139.164062 92.894531 139.683594 91.917969 139.078125 91.789062 C 138.554688 91.730469 137.410156 91.441406 137.578125 92.320312 C 138.296875 93.277344 139.84375 93.105469 140.398438 94.28125 C 140.882812 95.164062 139.632812 95.761719 139.8125 96.636719 C 139.933594 97.921875 139.996094 99.476562 138.738281 100.242188 C 137.933594 100.929688 140.007812 100.726562 139.683594 101.578125 C 139.261719 102.394531 139.273438 103.300781 139.992188 103.914062 C 139.8125 105.007812 138.964844 103.910156 138.578125 103.546875 C 138.15625 102.902344 137.230469 103.363281 137.378906 104.082031 C 137.785156 105.246094 135.847656 105.484375 135.613281 104.496094 C 135.414062 103.386719 137.402344 103.40625 136.964844 102.234375 C 136.539062 101.316406 137.636719 100.578125 137.140625 99.667969 C 136.582031 98.667969 136.636719 97.527344 136.878906 96.441406 C 136.222656 95.6875 135.957031 94.457031 136.613281 93.648438 C 137.867188 93.203125 136.609375 95.679688 137.964844 95.589844 C 137.65625 94.617188 138.652344 94.605469 139.304688 94.855469 C 139.394531 93.480469 137.234375 93.84375 136.957031 92.632812 C 136.410156 90.246094 132.699219 93.019531 131.683594 91.003906 C 131.15625 90.242188 131.449219 88.816406 132.476562 88.707031 C 148.289062 88.710938 164.128906 88.402344 179.945312 88.578125 C 180.75 87.824219 181.75 87.503906 182.855469 87.433594 C 183.328125 85.449219 182.5 83.058594 184.070312 81.398438 C 184.859375 77.257812 183.558594 72.390625 184.828125 68.535156 C 183.628906 67.867188 184.710938 66.308594 184.207031 65.316406 C 182.71875 64.421875 180.417969 66.257812 179.394531 64.300781 C 179.089844 62.640625 177.28125 60.5625 178.636719 58.988281 C 181.292969 58.039062 184.125 57.554688 186.945312 57.378906 M 189.101562 58.585938 C 188.878906 59.046875 191.015625 59.214844 191.738281 59.101562 C 190.910156 58.761719 190 58.566406 189.101562 58.585938 M 184.570312 58.785156 C 183.996094 58.945312 182.972656 58.808594 182.761719 59.394531 C 184.054688 59.203125 185.355469 59.058594 186.644531 58.832031 C 186.109375 58.449219 185.203125 58.839844 184.570312 58.785156 M 192.363281 59.105469 C 192.65625 59.703125 193.460938 59.6875 193.964844 60.046875 C 195.375 60.496094 194.21875 62.394531 193.863281 63.1875 C 192.023438 63.324219 190.257812 62.136719 188.375 62.21875 C 188.890625 69.628906 188.304688 77.089844 188.464844 84.488281 C 189.113281 84.929688 189.808594 85.464844 190.246094 86.085938 C 190.429688 84.800781 190.421875 83 189.574219 81.792969 C 189.457031 76.332031 189.539062 70.84375 189.625 65.382812 C 190.398438 63.632812 192.359375 64.097656 193.878906 64.171875 C 195.0625 63.296875 195.246094 61.691406 195.558594 60.351562 C 195.070312 59.167969 193.417969 59.347656 192.363281 59.105469 M 180.796875 59.839844 C 178.882812 60.328125 180.511719 62.585938 180.769531 63.785156 C 182.253906 64.007812 184.972656 63.394531 185.507812 65.457031 C 185.980469 70.003906 185.296875 74.585938 185.417969 79.160156 C 185.917969 81.742188 183.328125 83.894531 184.183594 86.332031 C 185.070312 86.078125 185.003906 84.421875 186.355469 84.777344 C 186.765625 78.535156 186.542969 72.195312 186.753906 65.914062 C 186.707031 64.558594 186.777344 63.152344 187.4375 61.929688 C 189.238281 61.203125 191.304688 61.726562 193.039062 62.433594 C 193.761719 62.363281 193.960938 59.921875 193.148438 61.128906 C 192.433594 61.800781 192.640625 59.820312 191.921875 60.683594 C 191.34375 61.390625 191.351562 59.65625 190.820312 60.375 C 190.269531 61.566406 189.746094 58.890625 189.417969 60.453125 C 188.902344 61.464844 188.761719 58.816406 188.191406 60.148438 C 187.8125 61.386719 187.542969 60.074219 187.074219 59.945312 C 186.6875 61.09375 185.777344 59.429688 185.355469 60.539062 C 184.863281 60.503906 184.492188 59.910156 184.152344 60.671875 C 183.582031 60.457031 183.132812 60.433594 182.890625 61.136719 C 182.050781 60.082031 181.621094 61.507812 182.402344 62.054688 C 183.792969 61.945312 185.25 61.464844 186.617188 61.824219 C 186.855469 62.507812 186 62.53125 185.542969 62.59375 C 184.328125 62.613281 183.207031 63.121094 182.015625 63.242188 C 181.058594 62.464844 180.871094 60.480469 180.796875 59.839844 M 186.304688 85.894531 C 185.011719 86.027344 184.691406 87.785156 183.410156 88.109375 C 181.460938 88.460938 180.242188 90.132812 178.359375 90.757812 C 178.332031 89.03125 175.320312 91.914062 177.171875 91.667969 C 179.6875 91.242188 182.390625 92.164062 183.957031 94.109375 C 184.691406 92.496094 183.457031 89.988281 184.589844 88.433594 C 186.328125 88.378906 188.347656 88.03125 190.128906 88.582031 C 190.800781 90.195312 190.171875 92.195312 190.523438 93.851562 C 192.089844 93.046875 192.648438 90.839844 194.515625 90.277344 C 196.195312 89.359375 193.816406 89.359375 193.085938 89.292969 C 192.113281 87.96875 190.035156 88.257812 189.304688 86.640625 C 188.890625 85.304688 187.300781 85.9375 186.304688 85.894531 M 186.703125 89.097656 C 185.058594 89.113281 186.007812 91.109375 186.191406 92.015625 C 186.585938 92.351562 187.21875 91.339844 187.605469 91.96875 C 188.105469 92.695312 187.121094 93.0625 186.585938 93.015625 C 186.210938 93.65625 186.828125 95.175781 187.605469 94.296875 C 187.988281 93.011719 188.15625 91.640625 188.617188 90.359375 C 189.179688 89.320312 187.4375 88.945312 186.703125 89.097656 M 213.117188 89.382812 C 211.914062 89.097656 209.21875 91.765625 211.765625 91.230469 C 214.492188 90.46875 218.585938 92.285156 220.140625 89.472656 C 217.945312 89.253906 215.4375 89.464844 213.117188 89.382812 M 232.816406 89.378906 C 232.339844 89.601562 231.902344 89.933594 231.53125 90.304688 C 231.492188 91.789062 234.472656 89.097656 232.816406 89.378906 M 223.15625 89.488281 C 222.523438 89.742188 221.765625 90.171875 221.519531 90.804688 C 222.035156 91.179688 224.097656 89.675781 223.15625 89.488281 M 221.292969 89.632812 C 220.8125 89.917969 220.171875 90.242188 220.011719 90.78125 C 220.265625 90.988281 222.261719 89.558594 221.292969 89.632812 M 151.550781 89.785156 C 150.945312 90.042969 149.699219 90.382812 149.808594 91.128906 C 152.480469 91.082031 155.34375 91.578125 157.90625 90.792969 C 158.550781 91.171875 159.238281 90.996094 159.648438 90.371094 C 158.851562 90.757812 158.785156 90.625 159.121094 89.847656 C 156.664062 89.503906 154.066406 89.828125 151.550781 89.785156 M 161.757812 89.738281 C 161.269531 90.207031 160.320312 90.511719 160.222656 91.164062 C 161.03125 91.199219 161.617188 90.441406 162.414062 90.378906 C 162.503906 90.726562 161.542969 91.183594 162.167969 91.296875 C 163.023438 90.652344 164.632812 91.082031 164.796875 89.722656 C 163.785156 89.660156 162.765625 89.691406 161.757812 89.738281 M 148.046875 89.890625 C 147.492188 90.035156 146.15625 91.121094 147.335938 91.148438 C 147.855469 91.199219 149.699219 90.746094 148.507812 90.722656 C 147.660156 90.921875 148.847656 89.699219 148.046875 89.890625 M 173.457031 90.035156 C 172.882812 90.214844 172.265625 90.667969 172.21875 91.308594 C 172.757812 91.335938 173.902344 90.097656 173.457031 90.035156 M 225.03125 90.148438 C 224.222656 90.332031 224.636719 91.355469 225.351562 90.785156 C 226.441406 90.648438 225.609375 89.925781 225.03125 90.148438 M 189.453125 90.234375 C 188.640625 91.640625 188.613281 93.328125 188.1875 94.859375 C 187.9375 95.933594 186.109375 95.519531 186.070312 94.515625 C 185.730469 93.21875 186.078125 91.382812 185.148438 90.378906 C 184.863281 92.691406 184.957031 95.527344 185.019531 97.988281 C 186.382812 98.105469 188.34375 98.664062 189.4375 97.652344 C 189.085938 95.234375 190.09375 92.449219 189.453125 90.234375 M 175.964844 90.558594 C 173.878906 91.523438 176.058594 91.625 175.964844 90.558594 M 209.042969 90.578125 C 208.410156 90.878906 207.691406 90.867188 207.027344 91.027344 C 207.785156 92.058594 211.320312 90.640625 209.042969 90.578125 M 235.15625 91.488281 C 234.242188 91.539062 235.007812 93.097656 235.5625 92.304688 C 236.234375 91.878906 235.828125 91.34375 235.15625 91.488281 M 235.699219 93.214844 C 235.007812 93.496094 234.398438 94.277344 234.832031 95.035156 C 235.949219 94.972656 236.894531 93.738281 235.699219 93.214844 M 138.40625 96.070312 C 137.515625 96.75 137.414062 98.355469 138.398438 98.980469 C 139.152344 98.3125 139.195312 96.734375 138.40625 96.070312 M 235.53125 96.238281 C 235.253906 96.722656 235.0625 98.117188 235.765625 98.121094 C 235.84375 97.554688 236.3125 96.3125 235.53125 96.238281 M 187.253906 99.070312 C 186.066406 100.472656 186.945312 103.417969 189.28125 102.753906 C 189.339844 101.125 189.972656 98.074219 187.253906 99.070312 M 184.742188 99.214844 C 185.140625 100.492188 184.042969 102.382812 185.015625 103.382812 C 185.40625 102.261719 185.882812 99.503906 184.742188 99.214844 M 186.851562 103.273438 C 184.84375 103.328125 184.410156 106.046875 185.710938 107.199219 C 186.824219 107.960938 188.753906 107.734375 189.222656 106.316406 C 189.875 104.828125 188.484375 102.9375 186.851562 103.273438 M 184.855469 107.679688 C 184.523438 109.1875 184.921875 110.773438 184.660156 112.300781 C 184.84375 144.070312 184.546875 175.964844 184.648438 207.738281 C 185.136719 208.492188 185.488281 207.136719 185.234375 206.761719 C 185.058594 173.839844 185.40625 140.886719 185.289062 107.949219 C 185.152344 107.847656 185.003906 107.757812 184.855469 107.679688 M 189.238281 108.460938 C 188.753906 108.789062 188.332031 109.242188 187.75 109.394531 C 186.480469 109.609375 187.003906 111.296875 186.976562 112.21875 C 187.152344 143.917969 186.640625 175.648438 186.980469 207.3125 C 186.59375 208.832031 188.605469 208.382812 189.253906 207.898438 C 189.175781 175.640625 189.335938 143.289062 189.320312 110.996094 C 189.339844 110.28125 189.640625 108.820312 189.238281 108.460938 M 190.792969 207.828125 C 190.105469 208.671875 192.148438 209.441406 191.148438 210.316406 C 189.117188 211.488281 186.570312 211.117188 184.324219 210.925781 C 183.351562 210.882812 182.125 209.578125 183.246094 208.851562 C 184.441406 208.023438 182.664062 207.71875 182.054688 208.171875 C 175.078125 210.105469 167.816406 209.339844 160.683594 209.496094 C 159.929688 209.539062 161.355469 210.003906 160.609375 210.136719 C 158.046875 210.253906 155.464844 209.730469 152.914062 210.3125 C 152.621094 210.46875 150.804688 210.152344 151.382812 210.742188 C 155.796875 210.136719 160.160156 211.09375 164.570312 210.75 C 169.628906 211.019531 174.789062 210.308594 179.753906 211.605469 C 184.273438 212.53125 189.023438 212.789062 193.492188 211.472656 C 196.546875 210.480469 199.804688 210.628906 202.972656 210.605469 C 203.628906 210.390625 203.394531 209.230469 202.714844 209.292969 C 198.65625 209.570312 194.753906 208.378906 190.792969 207.828125 M 187.832031 208.9375 C 186.367188 208.503906 186.390625 210.964844 187.828125 210.488281 C 189.195312 210.914062 188.855469 208.792969 187.832031 208.9375 M 189.816406 208.917969 C 189.621094 210.429688 191.277344 209.320312 189.816406 208.917969 M 204.53125 209.347656 C 203.597656 209.355469 203.71875 210.851562 204.683594 210.621094 C 205.71875 210.234375 208.539062 211.542969 208.417969 209.722656 C 207.355469 209 205.804688 209.460938 204.53125 209.347656 M 212.859375 209.339844 C 211.921875 209.601562 209.632812 208.789062 210.320312 210.5 C 211.484375 211.136719 213.042969 210.644531 214.292969 210.671875 C 215.097656 209.917969 213.691406 208.933594 212.859375 209.339844 M 215.355469 209.414062 C 215.085938 209.75 215.027344 210.644531 215.609375 210.621094 C 216.367188 210.660156 215.890625 209.320312 215.355469 209.414062 M 209.089844 209.550781 C 208.210938 211.609375 210.667969 209.90625 209.089844 209.550781 M 216.695312 209.53125 C 215.910156 211.257812 217.996094 210.09375 216.695312 209.53125 M 197.996094 211.308594 C 194.367188 211.855469 190.859375 213.320312 187.117188 212.957031 C 184.71875 213.449219 188.261719 213.394531 188.832031 213.441406 C 189.0625 214.234375 187.132812 213.578125 187.136719 214.335938 C 187.679688 214.867188 189.246094 213.910156 189.007812 215.011719 C 188.394531 215.101562 187.703125 214.863281 187.144531 215.164062 C 187.226562 216.160156 189.703125 214.757812 189.339844 215.878906 C 188.070312 215.933594 186.667969 215.59375 185.414062 216.089844 C 184.558594 215.273438 186.03125 213.535156 184.875 213.007812 C 183.515625 213.300781 183.910156 215.5625 184.402344 216.355469 C 187.105469 216.191406 190.71875 216.828125 192.738281 215.15625 C 193.4375 216.339844 194.839844 214.886719 195.222656 214.386719 C 192.3125 214.554688 197.707031 211.828125 196.554688 213.957031 C 196.332031 215.199219 198.308594 215.210938 198.398438 214.164062 C 198.160156 213.355469 198.882812 211.71875 197.996094 211.308594 M 212.847656 211.472656 C 212.390625 213.140625 208.902344 211.785156 207.292969 212.46875 C 208.671875 212.695312 210.097656 212.550781 211.464844 212.894531 C 210.976562 213.890625 212.597656 213.300781 212.824219 213.949219 C 212.195312 214.285156 211.417969 214.089844 210.75 214.320312 C 212.023438 214.84375 213.488281 214.570312 214.839844 214.609375 C 214.960938 213.976562 215.140625 213.3125 215.738281 212.976562 C 214.96875 212.925781 214.871094 212.160156 214.632812 211.585938 C 214.09375 211.277344 213.4375 211.464844 212.847656 211.472656 M 154.339844 211.691406 C 155.867188 212.761719 158.65625 211.519531 160.613281 212.183594 C 162.40625 212.097656 164.242188 211.945312 166.035156 212.226562 C 166.125 212.738281 165.117188 212.425781 165.109375 212.894531 C 165.78125 212.847656 167.5625 212.746094 166.328125 212.335938 C 167.546875 211.832031 169.621094 212.75 170.929688 211.742188 C 165.402344 211.703125 159.875 211.726562 154.339844 211.691406 M 219.578125 211.992188 C 218.472656 212.46875 221.386719 213.039062 221.503906 212.09375 C 220.929688 211.757812 220.199219 212.003906 219.578125 211.992188 M 163.433594 212.5625 C 162.472656 212.6875 161.347656 212.578125 160.542969 212.878906 C 161.910156 213.160156 163.535156 213.097656 164.871094 212.785156 C 164.421875 212.582031 163.929688 212.425781 163.433594 212.5625 M 167.988281 212.546875 C 166.746094 212.816406 168.648438 213.546875 168.855469 213.933594 C 164.199219 214.992188 159.382812 214.566406 154.652344 214.421875 C 153.542969 214.707031 155.164062 215.332031 155.625 215.046875 C 160.625 214.480469 165.738281 215.664062 170.597656 214.371094 C 170.183594 214.078125 169.519531 214.152344 169.085938 213.800781 C 169.558594 213.34375 170.957031 213.667969 170.945312 212.777344 C 170.003906 212.453125 168.96875 212.554688 167.988281 212.546875 M 181.71875 212.777344 C 180.734375 213.351562 181.019531 215.066406 181.167969 215.945312 C 182.351562 216.050781 182.863281 212.960938 181.71875 212.777344 M 220.136719 213.054688 C 219.71875 213.058594 219.101562 213.714844 219.816406 213.785156 C 221.203125 214.226562 222.527344 212.296875 220.136719 213.054688 M 156.484375 213.371094 C 156.003906 213.394531 154.394531 213.394531 155.230469 213.960938 C 157.808594 214.09375 160.417969 214.164062 163 214.027344 C 163.191406 213.992188 163.863281 213.742188 163.34375 213.6875 C 161.042969 213.851562 158.777344 213.347656 156.484375 213.371094 M 215.953125 214.410156 C 214.984375 214.699219 217.457031 215.050781 217.625 214.503906 C 217.101562 214.261719 216.5 214.34375 215.953125 214.410156 Z M 215.953125 214.410156 " fill-opacity="1" fill-rule="nonzero"/></g></svg>